{
  "accessors": [
    {
      "bufferView": 2,
      "componentType": 5126,
      "count": 22644,
      "max": [0.08000000566244125, 0.1550000011920929, 0.08162277936935425],
      "min": [-0.08000000566244125, -0.1550000011920929, -0.08000000566244125],
      "type": "VEC3"
    },
    {
      "bufferView": 2,
      "byteOffset": 271728,
      "componentType": 5126,
      "count": 22644,
      "max": [1.0, 1.0, 1.0],
      "min": [-1.0, -1.0, -1.0],
      "type": "VEC3"
    },
    {
      "bufferView": 1,
      "componentType": 5126,
      "count": 22644,
      "max": [0.9739274978637695, 0.9381210803985596],
      "min": [0.006740197539329529, 0.02132442593574524],
      "type": "VEC2"
    },
    {
      "bufferView": 1,
      "byteOffset": 181152,
      "componentType": 5126,
      "count": 22644,
      "max": [0.9739274978637695, 0.9381210803985596],
      "min": [0.006740197539329529, 0.02132442593574524],
      "type": "VEC2"
    },
    {
      "bufferView": 1,
      "byteOffset": 362304,
      "componentType": 5126,
      "count": 22644,
      "max": [0.9739274978637695, 0.9381210803985596],
      "min": [0.006740197539329529, 0.02132442593574524],
      "type": "VEC2"
    },
    {
      "bufferView": 1,
      "byteOffset": 543456,
      "componentType": 5126,
      "count": 22644,
      "max": [0.9739274978637695, 0.9381210803985596],
      "min": [0.006740197539329529, 0.02132442593574524],
      "type": "VEC2"
    },
    {
      "bufferView": 0,
      "componentType": 5125,
      "count": 67245,
      "type": "SCALAR"
    },
    {
      "bufferView": 2,
      "byteOffset": 543456,
      "componentType": 5126,
      "count": 20,
      "max": [0.07637866586446762, 0.07637866586446762, 0.07637866586446762],
      "min": [-0.07637866586446762, 0.06858387589454651, -0.07637866586446762],
      "type": "VEC3"
    },
    {
      "bufferView": 2,
      "byteOffset": 543696,
      "componentType": 5126,
      "count": 20,
      "max": [1.0, 0.0, 1.0],
      "min": [-1.0, -1.0, -1.0],
      "type": "VEC3"
    },
    {
      "bufferView": 1,
      "byteOffset": 724608,
      "componentType": 5126,
      "count": 20,
      "max": [0.2246023267507553, 0.9631626605987549],
      "min": [0.024372175335884094, 0.762932538986206],
      "type": "VEC2"
    },
    {
      "bufferView": 1,
      "byteOffset": 724768,
      "componentType": 5126,
      "count": 20,
      "max": [0.2246023267507553, 0.9631626605987549],
      "min": [0.024372175335884094, 0.762932538986206],
      "type": "VEC2"
    },
    {
      "bufferView": 1,
      "byteOffset": 724928,
      "componentType": 5126,
      "count": 20,
      "max": [0.2246023267507553, 0.9631626605987549],
      "min": [0.024372175335884094, 0.762932538986206],
      "type": "VEC2"
    },
    {
      "bufferView": 1,
      "byteOffset": 725088,
      "componentType": 5126,
      "count": 20,
      "max": [0.2246023267507553, 0.9631626605987549],
      "min": [0.024372175335884094, 0.762932538986206],
      "type": "VEC2"
    },
    {
      "bufferView": 0,
      "byteOffset": 268980,
      "componentType": 5125,
      "count": 30,
      "type": "SCALAR"
    },
    {
      "bufferView": 2,
      "byteOffset": 543936,
      "componentType": 5126,
      "count": 128,
      "max": [1.0, 1.0, 1.0],
      "min": [-1.0, -4.008810997009277, -1.0],
      "type": "VEC3"
    },
    {
      "bufferView": 2,
      "byteOffset": 545472,
      "componentType": 5126,
      "count": 128,
      "max": [1.0, 1.0, 1.0],
      "min": [-1.0, -1.0, -1.0],
      "type": "VEC3"
    },
    {
      "bufferView": 1,
      "byteOffset": 725248,
      "componentType": 5126,
      "count": 128,
      "max": [0.48296090960502625, 0.7159656882286072],
      "min": [0.2488621175289154, 0.48186689615249634],
      "type": "VEC2"
    },
    {
      "bufferView": 1,
      "byteOffset": 726272,
      "componentType": 5126,
      "count": 128,
      "max": [0.48296090960502625, 0.7159656882286072],
      "min": [0.2488621175289154, 0.48186689615249634],
      "type": "VEC2"
    },
    {
      "bufferView": 1,
      "byteOffset": 727296,
      "componentType": 5126,
      "count": 128,
      "max": [0.48296090960502625, 0.7159656882286072],
      "min": [0.2488621175289154, 0.48186689615249634],
      "type": "VEC2"
    },
    {
      "bufferView": 1,
      "byteOffset": 728320,
      "componentType": 5126,
      "count": 128,
      "max": [0.48296090960502625, 0.7159656882286072],
      "min": [0.2488621175289154, 0.48186689615249634],
      "type": "VEC2"
    },
    {
      "bufferView": 0,
      "byteOffset": 269100,
      "componentType": 5125,
      "count": 372,
      "type": "SCALAR"
    },
    {
      "bufferView": 2,
      "byteOffset": 547008,
      "componentType": 5126,
      "count": 303,
      "max": [1.0, 1.0, 1.0],
      "min": [-1.0, -1.0, -1.0],
      "type": "VEC3"
    },
    {
      "bufferView": 2,
      "byteOffset": 550644,
      "componentType": 5126,
      "count": 303,
      "max": [1.0, 1.0, 1.0],
      "min": [-1.0, -1.0, -1.0],
      "type": "VEC3"
    },
    {
      "bufferView": 1,
      "byteOffset": 729344,
      "componentType": 5126,
      "count": 303,
      "max": [1.0, 1.0],
      "min": [0.0, 0.01000000536441803],
      "type": "VEC2"
    },
    {
      "bufferView": 1,
      "byteOffset": 731768,
      "componentType": 5126,
      "count": 303,
      "max": [1.0, 1.0],
      "min": [0.0, 0.01000000536441803],
      "type": "VEC2"
    },
    {
      "bufferView": 1,
      "byteOffset": 734192,
      "componentType": 5126,
      "count": 303,
      "max": [1.0, 1.0],
      "min": [0.0, 0.01000000536441803],
      "type": "VEC2"
    },
    {
      "bufferView": 1,
      "byteOffset": 736616,
      "componentType": 5126,
      "count": 303,
      "max": [1.0, 1.0],
      "min": [0.0, 0.01000000536441803],
      "type": "VEC2"
    },
    {
      "bufferView": 0,
      "byteOffset": 270588,
      "componentType": 5125,
      "count": 852,
      "type": "SCALAR"
    }
  ],
  "asset": {
    "extras": {
      "author": "sm_sahil (https://sketchfab.com/sm_sahil)",
      "license": "CC-BY-4.0 (http://creativecommons.org/licenses/by/4.0/)",
      "source": "https://sketchfab.com/3d-models/xbox-series-x-free-3d-model-08d4fd565ae64e6bbcda044c9195a639",
      "title": "Xbox Series X Free 3D Model"
    },
    "generator": "Sketchfab-12.67.0",
    "version": "2.0"
  },
  "bufferViews": [
    {
      "buffer": 0,
      "byteLength": 273996,
      "name": "floatBufferViews",
      "target": 34963
    },
    {
      "buffer": 0,
      "byteLength": 739040,
      "byteOffset": 273996,
      "byteStride": 8,
      "name": "floatBufferViews",
      "target": 34962
    },
    {
      "buffer": 0,
      "byteLength": 554280,
      "byteOffset": 1013036,
      "byteStride": 12,
      "name": "floatBufferViews",
      "target": 34962
    }
  ],
  "buffers": [
    {
      "byteLength": 1567316,
      "uri": "scene.bin"
    }
  ],
  "images": [
    {
      "uri": "textures/Xbox_Series_X_baseColor.webp"
    },
    {
      "uri": "textures/Xbox_Series_X_metallicRoughness.webp"
    },
    {
      "uri": "textures/Xbox_Series_X_emissive.webp"
    }
  ],
  "materials": [
    {
      "doubleSided": true,
      "emissiveFactor": [1.0, 1.0, 1.0],
      "emissiveTexture": {
        "index": 2,
        "texCoord": 2
      },
      "name": "Xbox_Series_X",
      "pbrMetallicRoughness": {
        "baseColorTexture": {
          "index": 0
        },
        "metallicRoughnessTexture": {
          "index": 1,
          "texCoord": 1
        }
      }
    }
  ],
  "meshes": [
    {
      "name": "Object_0",
      "primitives": [
        {
          "attributes": {
            "NORMAL": 1,
            "POSITION": 0,
            "TEXCOORD_0": 2,
            "TEXCOORD_1": 3,
            "TEXCOORD_2": 4,
            "TEXCOORD_3": 5
          },
          "indices": 6,
          "material": 0,
          "mode": 4
        }
      ]
    },
    {
      "name": "Object_1",
      "primitives": [
        {
          "attributes": {
            "NORMAL": 8,
            "POSITION": 7,
            "TEXCOORD_0": 9,
            "TEXCOORD_1": 10,
            "TEXCOORD_2": 11,
            "TEXCOORD_3": 12
          },
          "indices": 13,
          "material": 0,
          "mode": 4
        }
      ]
    },
    {
      "name": "Object_2",
      "primitives": [
        {
          "attributes": {
            "NORMAL": 15,
            "POSITION": 14,
            "TEXCOORD_0": 16,
            "TEXCOORD_1": 17,
            "TEXCOORD_2": 18,
            "TEXCOORD_3": 19
          },
          "indices": 20,
          "material": 0,
          "mode": 4
        }
      ]
    },
    {
      "name": "Object_3",
      "primitives": [
        {
          "attributes": {
            "NORMAL": 22,
            "POSITION": 21,
            "TEXCOORD_0": 23,
            "TEXCOORD_1": 24,
            "TEXCOORD_2": 25,
            "TEXCOORD_3": 26
          },
          "indices": 27,
          "material": 0,
          "mode": 4
        }
      ]
    }
  ],
  "nodes": [
    {
      "children": [1],
      "matrix": [
        1.0, 0.0, 0.0, 0.0, 0.0, 2.220446049250313e-16, -1.0, 0.0, 0.0, 1.0,
        2.220446049250313e-16, 0.0, 0.0, 0.0, 0.0, 1.0
      ],
      "name": "Sketchfab_model"
    },
    {
      "children": [2],
      "name": "root"
    },
    {
      "children": [3],
      "matrix": [
        1.0, 0.0, 0.0, 0.0, 0.0, 2.220446049250313e-16, 1.0, 0.0, 0.0, -1.0,
        2.220446049250313e-16, 0.0, 0.0, 0.0, 0.0, 1.0
      ],
      "name": "GLTF_SceneRootNode"
    },
    {
      "children": [4, 5, 7, 9],
      "matrix": [
        1.0, 0.0, 0.0, 0.0, 0.0, 1.0, 0.0, 0.0, 0.0, 0.0, 1.0, 0.0, 0.0,
        0.15852515399456024, 0.0, 1.0
      ],
      "name": "Cube.003_4"
    },
    {
      "mesh": 0,
      "name": "Object_4"
    },
    {
      "children": [6],
      "matrix": [
        1.0, 0.0, 0.0, 0.0, 0.0, 1.0, 0.0, 0.0, 0.0, 0.0, 1.0, 0.0, 0.0,
        0.07200968265533447, 0.0, 1.0
      ],
      "name": "Cube.016_1"
    },
    {
      "mesh": 1,
      "name": "Object_6"
    },
    {
      "children": [8],
      "matrix": [
        0.08000000566244125, 0.0, 0.0, 0.0, 0.0, 0.0007999992230907083, 0.0,
        0.0, 0.0, 0.0, 0.08000000566244125, 0.0, 0.0, -0.15528135001659393, 0.0,
        1.0
      ],
      "name": "Cylinder.004_2"
    },
    {
      "mesh": 2,
      "name": "Object_8"
    },
    {
      "children": [10],
      "matrix": [
        0.002975728362798691, 0.0, 0.0, 0.0, 0.0, -5.016702986594224e-10,
        0.0029757283627986483, 0.0, 0.0, -0.0029757283627986483,
        -5.016702986594224e-10, 0.0, -0.002909249160438776,
        -0.14599335193634033, -0.07778611034154892, 1.0
      ],
      "name": "Cylinder.005_3"
    },
    {
      "mesh": 3,
      "name": "Object_10"
    }
  ],
  "samplers": [
    {
      "magFilter": 9729,
      "minFilter": 9987,
      "wrapS": 10497,
      "wrapT": 10497
    }
  ],
  "scene": 0,
  "scenes": [
    {
      "name": "Sketchfab_Scene",
      "nodes": [0]
    }
  ],
  "textures": [
    {
      "sampler": 0,
      "source": 0
    },
    {
      "sampler": 0,
      "source": 1
    },
    {
      "sampler": 0,
      "source": 2
    }
  ]
}
